<mxfile host="65bd71144e">
    <diagram id="lte9NGJQB8r7DApe3pEH" name="Page-1">
        <mxGraphModel dx="1261" dy="483" grid="1" gridSize="10" guides="1" tooltips="1" connect="1" arrows="1" fold="1" page="1" pageScale="1" pageWidth="1100" pageHeight="850" math="0" shadow="0">
            <root>
                <mxCell id="0"/>
                <mxCell id="1" parent="0"/>
                <mxCell id="3" value="" style="rounded=0;whiteSpace=wrap;html=1;" parent="1" vertex="1">
                    <mxGeometry x="310" y="80" width="320" height="290" as="geometry"/>
                </mxCell>
                <mxCell id="16" value="&lt;h3 style=&quot;font-size: 17px;&quot;&gt;Hospital Management System&lt;/h3&gt;" style="text;html=1;strokeColor=none;fillColor=none;align=center;verticalAlign=middle;whiteSpace=wrap;rounded=0;fontSize=17;" parent="1" vertex="1">
                    <mxGeometry x="350" y="90" width="250" height="30" as="geometry"/>
                </mxCell>
                <mxCell id="27" value="System" style="shape=umlActor;verticalLabelPosition=bottom;verticalAlign=top;html=1;outlineConnect=0;fontSize=17;" parent="1" vertex="1">
                    <mxGeometry x="710" y="110" width="30" height="60" as="geometry"/>
                </mxCell>
                <mxCell id="31" value="Medical Staff" style="shape=umlActor;verticalLabelPosition=bottom;verticalAlign=top;html=1;outlineConnect=0;fontSize=17;" parent="1" vertex="1">
                    <mxGeometry x="700" y="232.5" width="30" height="60" as="geometry"/>
                </mxCell>
                <mxCell id="41" value="" style="edgeStyle=none;html=1;fontSize=17;entryX=0;entryY=0.5;entryDx=0;entryDy=0;" parent="1" target="48" edge="1">
                    <mxGeometry relative="1" as="geometry">
                        <mxPoint x="240" y="190" as="sourcePoint"/>
                        <Array as="points">
                            <mxPoint x="280" y="220"/>
                        </Array>
                        <mxPoint x="330.00000000000955" y="410" as="targetPoint"/>
                    </mxGeometry>
                </mxCell>
                <mxCell id="46" value="" style="edgeStyle=none;html=1;fontSize=17;entryX=0;entryY=0.5;entryDx=0;entryDy=0;" parent="1" source="26" target="47" edge="1">
                    <mxGeometry relative="1" as="geometry">
                        <mxPoint x="335" y="195" as="targetPoint"/>
                    </mxGeometry>
                </mxCell>
                <mxCell id="26" value="Front&lt;br&gt;Desk &lt;br&gt;Staff" style="shape=umlActor;verticalLabelPosition=bottom;verticalAlign=top;html=1;outlineConnect=0;fontSize=17;" parent="1" vertex="1">
                    <mxGeometry x="200" y="142.5" width="30" height="60" as="geometry"/>
                </mxCell>
                <mxCell id="47" value="Patient Admission&amp;nbsp;" style="ellipse;whiteSpace=wrap;html=1;" vertex="1" parent="1">
                    <mxGeometry x="342.5" y="150" width="85" height="45" as="geometry"/>
                </mxCell>
                <mxCell id="48" value="Appointment" style="ellipse;whiteSpace=wrap;html=1;" vertex="1" parent="1">
                    <mxGeometry x="342.5" y="215" width="85" height="35" as="geometry"/>
                </mxCell>
                <mxCell id="49" value="Medical Record" style="ellipse;whiteSpace=wrap;html=1;" vertex="1" parent="1">
                    <mxGeometry x="480" y="240" width="80" height="45" as="geometry"/>
                </mxCell>
                <mxCell id="50" value="Billing" style="ellipse;whiteSpace=wrap;html=1;" vertex="1" parent="1">
                    <mxGeometry x="480" y="195" width="60" height="30" as="geometry"/>
                </mxCell>
                <mxCell id="55" value="" style="endArrow=classic;html=1;entryX=1;entryY=0.5;entryDx=0;entryDy=0;" edge="1" parent="1" target="47">
                    <mxGeometry width="50" height="50" relative="1" as="geometry">
                        <mxPoint x="700" y="140" as="sourcePoint"/>
                        <mxPoint x="750" y="90" as="targetPoint"/>
                    </mxGeometry>
                </mxCell>
                <mxCell id="56" value="" style="endArrow=classic;html=1;entryX=1;entryY=0.5;entryDx=0;entryDy=0;" edge="1" parent="1" target="49">
                    <mxGeometry width="50" height="50" relative="1" as="geometry">
                        <mxPoint x="700" y="170" as="sourcePoint"/>
                        <mxPoint x="750" y="110" as="targetPoint"/>
                    </mxGeometry>
                </mxCell>
                <mxCell id="57" value="" style="endArrow=classic;html=1;entryX=1;entryY=0;entryDx=0;entryDy=0;" edge="1" parent="1" target="48">
                    <mxGeometry width="50" height="50" relative="1" as="geometry">
                        <mxPoint x="700" y="150" as="sourcePoint"/>
                        <mxPoint x="750" y="100" as="targetPoint"/>
                        <Array as="points">
                            <mxPoint x="550" y="170"/>
                        </Array>
                    </mxGeometry>
                </mxCell>
                <mxCell id="58" value="" style="endArrow=classic;html=1;entryX=1;entryY=0.5;entryDx=0;entryDy=0;" edge="1" parent="1" target="50">
                    <mxGeometry width="50" height="50" relative="1" as="geometry">
                        <mxPoint x="700" y="160" as="sourcePoint"/>
                        <mxPoint x="740" y="130" as="targetPoint"/>
                    </mxGeometry>
                </mxCell>
                <mxCell id="59" value="" style="endArrow=classic;html=1;entryX=1;entryY=1;entryDx=0;entryDy=0;" edge="1" parent="1" target="49">
                    <mxGeometry width="50" height="50" relative="1" as="geometry">
                        <mxPoint x="680" y="260" as="sourcePoint"/>
                        <mxPoint x="730" y="210" as="targetPoint"/>
                    </mxGeometry>
                </mxCell>
            </root>
        </mxGraphModel>
    </diagram>
</mxfile>